<?xml version="1.0" encoding="utf-8"?>
<!-- Generator: Adobe Illustrator 29.8.1, SVG Export Plug-In . SVG Version: 9.03 Build 0)  -->
<svg version="1.0" id="Capa_1" xmlns="http://www.w3.org/2000/svg" xmlns:xlink="http://www.w3.org/1999/xlink" x="0px" y="0px"
	 viewBox="0 0 758.6 241.37" style="enable-background:new 0 0 758.6 241.37;" xml:space="preserve">
<style type="text/css">
	.st0{fill-rule:evenodd;clip-rule:evenodd;fill:#FFFFFF;}
	.st1{fill-rule:evenodd;clip-rule:evenodd;fill:#C63838;}
	.st2{fill-rule:evenodd;clip-rule:evenodd;fill:#004F70;}
	.st3{fill-rule:evenodd;clip-rule:evenodd;fill:#F67A21;}
	.st4{fill:#004F70;}
	.st5{font-family:'DINPro-Medium';}
	.st6{font-size:90.1301px;}
	.st7{letter-spacing:-6;}
	.st8{fill:#C63838;}
</style>
<path class="st0" d="M141.59,117.76c-12.19,2.32-20.37,10.2-23.2,23.44c-0.58,4.82-6.06,4.77-5.81,0
	c2.67-17.17,13.08-26.73,29.01-28.34C144.91,112.47,145.58,116.96,141.59,117.76"/>
<path class="st1" d="M175.75,103.49c-5.75,0-11.21,1.34-16.15,3.73c-4.94-2.39-10.4-3.73-16.15-3.73
	c-21.96,0-39.75,19.36-39.75,43.24c0,23.88,17.8,59.27,39.75,59.27c5.75,0,11.21-2.43,16.15-6.45c4.93,4.01,10.4,6.45,16.15,6.45
	c21.95,0,39.75-35.39,39.75-59.27C215.5,122.85,197.7,103.49,175.75,103.49"/>
<path class="st2" d="M187.61,93.67c7.73-6.49,11.88-15.67,12.23-25.03c-9.28-1.27-19.03,1.24-26.76,7.73
	c-7.73,6.49-11.88,15.67-12.23,25.02C170.13,102.67,179.89,100.16,187.61,93.67 M156.16,95.64c1.82-4.76,1.69-10.25-0.81-15.15
	c-2.49-4.9-6.85-8.23-11.77-9.57c-1.81,4.76-1.69,10.25,0.81,15.15C146.89,90.98,151.24,94.3,156.16,95.64z"/>
<path class="st3" d="M53.22,50.53h69.5c3.33,0,6.05,2.72,6.05,6.05v32.93c0,3.33-2.72,6.05-6.05,6.05h-0.93l0.03,8.49l-12.59-8.49
	h-56c-3.33,0-6.05-2.72-6.05-6.05V56.58C47.17,53.25,49.89,50.53,53.22,50.53"/>
<text transform="matrix(1 0 0 1 224.4888 180.9145)"><tspan x="0" y="0" class="st4 st5 st6 st7">Meta</tspan><tspan x="175.57" y="0" class="st8 st5 st6 st7">Docencia</tspan></text>
<path class="st0" d="M141.91,117.21c-12.19,2.32-20.37,10.2-23.2,23.44c-0.58,4.82-6.06,4.77-5.81,0
	c2.67-17.17,13.08-26.73,29.01-28.34C145.23,111.91,145.9,116.4,141.91,117.21"/>
</svg>
