<?xml version="1.0" encoding="utf-8"?>
<!-- Generator: Adobe Illustrator 29.5.1, SVG Export Plug-In . SVG Version: 9.03 Build 0)  -->
<svg version="1.0" id="Capa_1" xmlns="http://www.w3.org/2000/svg" xmlns:xlink="http://www.w3.org/1999/xlink" x="0px" y="0px"
	 viewBox="0 0 359.91 118.4" style="enable-background:new 0 0 359.91 118.4;" xml:space="preserve">
<style type="text/css">
	.st0{fill-rule:evenodd;clip-rule:evenodd;fill:#C63838;}
	.st1{fill-rule:evenodd;clip-rule:evenodd;fill:#FFFFFF;}
	.st2{fill-rule:evenodd;clip-rule:evenodd;fill:#004F70;}
	.st3{fill-rule:evenodd;clip-rule:evenodd;fill:#F67A21;}
	.st4{fill:#004F70;}
	.st5{fill:#C63838;}
</style>
<g>
	<path class="st0" d="M94.54,40.7c-4.1,0-8,0.96-11.52,2.66C79.5,41.66,75.6,40.7,71.5,40.7c-15.66,0-28.35,13.81-28.35,30.84
		c0,17.03,12.69,42.28,28.35,42.28c4.1,0,8-1.73,11.52-4.6c3.52,2.86,7.42,4.6,11.52,4.6c15.66,0,28.35-25.25,28.35-42.28
		C122.89,54.51,110.2,40.7,94.54,40.7"/>
</g>
<g>
	<path class="st1" d="M70.18,50.48c-8.69,1.65-14.53,7.27-16.55,16.72c-0.41,3.44-4.32,3.4-4.15,0c1.9-12.25,9.33-19.06,20.69-20.21
		C72.54,46.71,73.03,49.91,70.18,50.48"/>
</g>
<g>
	<path class="st2" d="M103,33.69c5.51-4.63,8.48-11.18,8.73-17.85c-6.62-0.9-13.57,0.88-19.09,5.52
		c-5.51,4.63-8.47,11.18-8.72,17.85C90.53,40.11,97.49,38.33,103,33.69 M80.57,35.11c1.3-3.4,1.2-7.31-0.58-10.81
		c-1.78-3.5-4.89-5.87-8.39-6.82c-1.29,3.4-1.2,7.31,0.58,10.81C73.95,31.78,77.06,34.15,80.57,35.11z"/>
</g>
<g>
	<path class="st3" d="M7.15,2.93h49.57c2.37,0,4.32,1.94,4.32,4.32v23.49c0,2.37-1.94,4.32-4.32,4.32h-0.66l0.02,6.06l-8.98-6.06
		H7.15c-2.37,0-4.32-1.94-4.32-4.32V7.24C2.83,4.87,4.77,2.93,7.15,2.93"/>
</g>
<g>
	<path class="st4" d="M175.85,61.34h-6.94v-30.6l-10.54,22.31h-5.14l-10.8-22.31v30.6h-6.94V15.57h6.94l13.37,28.48l13.11-28.48
		h6.94V61.34z"/>
	<path class="st4" d="M208.51,46.94h-21.15c0,2.83,0.72,5.06,2.15,6.69s3.48,2.44,6.14,2.44c1.76,0,3.21-0.26,4.37-0.77
		c1.16-0.51,2.34-1.37,3.54-2.57l4.18,3.92c-1.76,1.76-3.55,3.04-5.37,3.86c-1.82,0.81-4.1,1.22-6.85,1.22
		c-4.46,0-8.01-1.33-10.67-3.99c-2.66-2.66-3.99-6.9-3.99-12.73c0-5.23,1.24-9.31,3.73-12.25c2.48-2.94,5.85-4.4,10.09-4.4
		c4.28,0,7.66,1.44,10.12,4.31c2.46,2.87,3.7,6.66,3.7,11.38V46.94z M202.02,42.38c-0.04-1.71-0.34-3.19-0.9-4.44
		c-1.16-2.74-3.3-4.11-6.43-4.11c-1.5,0-2.83,0.38-3.99,1.12c-1.16,0.75-1.99,1.75-2.51,2.99c-0.51,1.16-0.79,2.64-0.84,4.44H202.02
		z"/>
	<path class="st4" d="M226.38,61.34h-3.92c-2.87,0-5.08-0.88-6.62-2.64c-1.54-1.76-2.31-3.9-2.31-6.43V34.34h-3.73v-5.01h3.73v-9.9
		h6.56v9.9h6.3v5.01h-6.3v17.61c0,2.53,1.2,3.79,3.6,3.79h2.7V61.34z"/>
	<path class="st4" d="M254.09,61.34h-6.43v-2.96c-1.2,1.2-2.45,2.06-3.76,2.57c-1.31,0.51-2.95,0.77-4.92,0.77
		c-3.86,0-6.77-0.99-8.74-2.96c-1.71-1.8-2.57-4.14-2.57-7.01c0-2.83,0.96-5.1,2.89-6.81c1.93-1.71,4.71-2.57,8.36-2.57h8.61v-2.31
		c0-2.1-0.57-3.64-1.7-4.63c-1.14-0.99-2.95-1.48-5.43-1.48c-1.8,0-3.21,0.24-4.24,0.71c-1.03,0.47-1.99,1.29-2.89,2.44l-4.31-4.05
		c1.5-1.76,3.13-2.98,4.89-3.66c1.76-0.69,4.03-1.03,6.81-1.03c8.96,0,13.44,3.73,13.44,11.19V61.34z M247.53,49.58v-2.64h-7.65
		c-3.9,0-5.85,1.57-5.85,4.69c0,3.09,1.99,4.63,5.98,4.63c2.79,0,4.82-0.62,6.11-1.86C247.06,53.46,247.53,51.85,247.53,49.58z"/>
	<path class="st5" d="M168.01,90.29c0,5.4-0.24,9.15-0.71,11.25c-0.69,3.17-1.99,5.72-3.92,7.65c-2.87,2.87-6.81,4.31-11.83,4.31
		h-16.07V67.73h16.07c5.01,0,8.96,1.44,11.83,4.31c1.46,1.46,2.55,3.24,3.28,5.34c0.73,2.1,1.13,3.89,1.22,5.37s0.13,3.61,0.13,6.4
		C168.01,89.65,168.01,90.03,168.01,90.29z M161.07,90.29c0-2.57-0.03-4.51-0.1-5.82s-0.28-2.67-0.64-4.08
		c-0.37-1.42-0.93-2.53-1.7-3.34c-1.89-2.06-4.48-3.08-7.78-3.08h-8.42v33.3h8.42c3.3,0,5.89-1.03,7.78-3.09
		c1.07-1.2,1.75-2.84,2.03-4.92C160.93,97.18,161.07,94.19,161.07,90.29z"/>
	<path class="st5" d="M198.74,97.17c0,3-0.28,5.51-0.84,7.52c-0.56,2.01-1.57,3.79-3.02,5.33c-2.49,2.57-5.74,3.86-9.77,3.86
		c-3.99,0-7.22-1.29-9.71-3.86c-1.46-1.54-2.46-3.32-3.02-5.33c-0.56-2.01-0.84-4.52-0.84-7.52c0-2.96,0.28-5.45,0.84-7.49
		c0.56-2.04,1.56-3.8,3.02-5.3c2.49-2.57,5.72-3.86,9.71-3.86c4.03,0,7.29,1.29,9.77,3.86c1.46,1.5,2.46,3.27,3.02,5.3
		C198.46,91.72,198.74,94.21,198.74,97.17z M192.18,97.17c0-4.46-0.75-7.44-2.25-8.94c-1.24-1.24-2.85-1.86-4.82-1.86
		c-1.93,0-3.51,0.62-4.76,1.86c-1.5,1.5-2.25,4.48-2.25,8.94s0.75,7.44,2.25,8.94c1.29,1.29,2.87,1.93,4.76,1.93
		c1.93,0,3.54-0.64,4.82-1.93C191.43,104.61,192.18,101.63,192.18,97.17z"/>
	<path class="st5" d="M226.77,109.25c-2.92,3.09-6.49,4.63-10.74,4.63c-1.93,0-3.73-0.31-5.4-0.93c-1.67-0.62-3.2-1.56-4.6-2.83
		c-1.39-1.26-2.5-3-3.31-5.21c-0.81-2.21-1.22-4.79-1.22-7.75s0.41-5.54,1.22-7.75c0.81-2.21,1.92-3.94,3.31-5.21
		c1.39-1.26,2.93-2.2,4.6-2.8c1.67-0.6,3.47-0.9,5.4-0.9c4.29,0,7.86,1.52,10.74,4.56l-4.5,4.37c-1.03-1.11-2-1.91-2.92-2.38
		c-0.92-0.47-2.03-0.71-3.31-0.71c-2.57,0-4.59,0.96-6.04,2.89c-1.29,1.63-1.93,4.26-1.93,7.91c0,3.69,0.64,6.34,1.93,7.97
		c1.46,1.93,3.47,2.89,6.04,2.89c1.29,0,2.39-0.24,3.31-0.71c0.92-0.47,1.9-1.26,2.92-2.38L226.77,109.25z"/>
	<path class="st5" d="M254.73,99.1h-21.15c0,2.83,0.72,5.06,2.15,6.69s3.48,2.44,6.14,2.44c1.76,0,3.21-0.26,4.37-0.77
		c1.16-0.51,2.34-1.37,3.54-2.57l4.18,3.92c-1.76,1.76-3.55,3.04-5.37,3.86c-1.82,0.81-4.1,1.22-6.85,1.22
		c-4.46,0-8.01-1.33-10.67-3.99c-2.66-2.66-3.99-6.9-3.99-12.73c0-5.23,1.24-9.31,3.73-12.25c2.48-2.93,5.85-4.4,10.09-4.4
		c4.28,0,7.66,1.44,10.12,4.31c2.46,2.87,3.7,6.66,3.7,11.38V99.1z M248.24,94.53c-0.04-1.71-0.34-3.19-0.9-4.44
		c-1.16-2.74-3.3-4.11-6.43-4.11c-1.5,0-2.83,0.38-3.99,1.12s-1.99,1.75-2.51,2.99c-0.51,1.16-0.79,2.64-0.84,4.44H248.24z"/>
	<path class="st5" d="M285.39,113.5h-6.56V93.63c0-2.44-0.6-4.26-1.8-5.46c-1.2-1.2-2.79-1.8-4.76-1.8c-1.97,0-3.59,0.61-4.85,1.83
		c-1.26,1.22-1.9,3.03-1.9,5.43v19.86h-6.56V80.91h6.43v3.28c2.27-2.44,5.16-3.66,8.68-3.66c3.3,0,5.98,0.99,8.04,2.96
		c2.19,2.14,3.28,5.21,3.28,9.19V113.5z"/>
	<path class="st5" d="M314.64,109.25c-2.92,3.09-6.49,4.63-10.74,4.63c-1.93,0-3.73-0.31-5.4-0.93c-1.67-0.62-3.2-1.56-4.6-2.83
		c-1.39-1.26-2.5-3-3.31-5.21c-0.81-2.21-1.22-4.79-1.22-7.75s0.41-5.54,1.22-7.75c0.81-2.21,1.92-3.94,3.31-5.21
		c1.39-1.26,2.93-2.2,4.6-2.8c1.67-0.6,3.47-0.9,5.4-0.9c4.29,0,7.86,1.52,10.74,4.56l-4.5,4.37c-1.03-1.11-2-1.91-2.92-2.38
		c-0.92-0.47-2.03-0.71-3.31-0.71c-2.57,0-4.59,0.96-6.04,2.89c-1.29,1.63-1.93,4.26-1.93,7.91c0,3.69,0.64,6.34,1.93,7.97
		c1.46,1.93,3.47,2.89,6.04,2.89c1.29,0,2.39-0.24,3.31-0.71c0.92-0.47,1.9-1.26,2.92-2.38L314.64,109.25z"/>
	<path class="st5" d="M324.54,74.48h-6.94v-6.94h6.94V74.48z M324.35,113.5h-6.56V80.91h6.56V113.5z"/>
	<path class="st5" d="M354.31,113.5h-6.43v-2.96c-1.2,1.2-2.45,2.06-3.76,2.57c-1.31,0.51-2.95,0.77-4.92,0.77
		c-3.86,0-6.77-0.99-8.74-2.96c-1.71-1.8-2.57-4.14-2.57-7.01c0-2.83,0.96-5.1,2.89-6.81c1.93-1.71,4.71-2.57,8.36-2.57h8.61v-2.31
		c0-2.1-0.57-3.64-1.7-4.63c-1.14-0.99-2.95-1.48-5.43-1.48c-1.8,0-3.21,0.24-4.24,0.71c-1.03,0.47-1.99,1.29-2.89,2.44l-4.31-4.05
		c1.5-1.76,3.13-2.98,4.89-3.67c1.76-0.68,4.03-1.03,6.81-1.03c8.96,0,13.44,3.73,13.44,11.19V113.5z M347.75,101.73V99.1h-7.65
		c-3.9,0-5.85,1.57-5.85,4.69c0,3.09,1.99,4.63,5.98,4.63c2.79,0,4.82-0.62,6.11-1.86C347.28,105.61,347.75,104.01,347.75,101.73z"
		/>
</g>
</svg>
